<svg width="28" height="28" viewBox="0 0 28 28" fill="none"
  xmlns="http://www.w3.org/2000/svg">
  <rect width="28" height="28" fill="white"/>
  <g filter="url(#filter0_d_2004_108)">
    <path d="M12.25 2H7.75C7.33579 2 7 2.33579 7 2.75V19.25C7 19.6642 7.33579 20 7.75 20H12.25C12.6642 20 13 19.6642 13 19.25V2.75C13 2.33579 12.6642 2 12.25 2Z" fill="#0C131B"/>
    <path d="M20.25 2H15.75C15.3358 2 15 2.33579 15 2.75V25.25C15 25.6642 15.3358 26 15.75 26H20.25C20.6642 26 21 25.6642 21 25.25V2.75C21 2.33579 20.6642 2 20.25 2Z" fill="#0C131B"/>
  </g>
  <defs>
    <filter id="filter0_d_2004_108" x="-2" y="2" width="28" height="28" filterUnits="userSpaceOnUse" color-interpolation-filters="sRGB">
      <feFlood flood-opacity="0" result="BackgroundImageFix"/>
      <feColorMatrix in="SourceAlpha" type="matrix" values="0 0 0 0 0 0 0 0 0 0 0 0 0 0 0 0 0 0 127 0" result="hardAlpha"/>
      <feOffset dy="4"/>
      <feGaussianBlur stdDeviation="2"/>
      <feComposite in2="hardAlpha" operator="out"/>
      <feColorMatrix type="matrix" values="0 0 0 0 0 0 0 0 0 0 0 0 0 0 0 0 0 0 0.25 0"/>
      <feBlend mode="normal" in2="BackgroundImageFix" result="effect1_dropShadow_2004_108"/>
      <feBlend mode="normal" in="SourceGraphic" in2="effect1_dropShadow_2004_108" result="shape"/>
    </filter>
  </defs>
</svg>
