<svg width="162" height="25" viewBox="0 0 162 25" fill="none" xmlns="http://www.w3.org/2000/svg">
<path d="M5.25 0H0.75C0.335786 0 0 0.335787 0 0.75V17.25C0 17.6642 0.335786 18 0.75 18H5.25C5.66421 18 6 17.6642 6 17.25V0.75C6 0.335786 5.66421 0 5.25 0Z" fill="white"/>
<path d="M13.25 0H8.75C8.33579 0 8 0.335786 8 0.75V23.25C8 23.6642 8.33579 24 8.75 24H13.25C13.6642 24 14 23.6642 14 23.25V0.75C14 0.335786 13.6642 0 13.25 0Z" fill="white"/>
<path d="M34.012 24.2V17.258H33.596C33.4053 17.6047 33.128 17.9427 32.764 18.272C32.4 18.584 31.932 18.844 31.36 19.052C30.8053 19.26 30.112 19.364 29.28 19.364C28.2053 19.364 27.2173 19.104 26.316 18.584C25.4147 18.064 24.6953 17.3187 24.158 16.348C23.6207 15.36 23.352 14.1727 23.352 12.786V12.396C23.352 11.0093 23.6207 9.83067 24.158 8.86C24.7127 7.872 25.4407 7.118 26.342 6.598C27.2433 6.078 28.2227 5.818 29.28 5.818C30.528 5.818 31.4813 6.04333 32.14 6.494C32.816 6.94467 33.3187 7.456 33.648 8.028H34.064V6.182H36.69V24.2H34.012ZM30.034 17.024C31.2127 17.024 32.1747 16.6513 32.92 15.906C33.6653 15.1607 34.038 14.0947 34.038 12.708V12.474C34.038 11.1047 33.6567 10.0473 32.894 9.302C32.1487 8.55667 31.1953 8.184 30.034 8.184C28.89 8.184 27.9367 8.55667 27.174 9.302C26.4287 10.0473 26.056 11.1047 26.056 12.474V12.708C26.056 14.0947 26.4287 15.1607 27.174 15.906C27.9367 16.6513 28.89 17.024 30.034 17.024ZM43.7263 19.234C42.7556 19.234 41.8889 19.0173 41.1263 18.584C40.3636 18.1507 39.7656 17.5353 39.3323 16.738C38.8989 15.9407 38.6823 14.9873 38.6823 13.878V6.182H41.3603V13.696C41.3603 14.8053 41.6376 15.6287 42.1923 16.166C42.7469 16.686 43.5183 16.946 44.5063 16.946C45.5983 16.946 46.4736 16.582 47.1323 15.854C47.8083 15.1087 48.1463 14.0427 48.1463 12.656V6.182H50.8243V19H48.1983V17.076H47.7823C47.5396 17.596 47.1063 18.09 46.4823 18.558C45.8583 19.0087 44.9396 19.234 43.7263 19.234ZM60.373 19.364C59.125 19.364 58.163 19.1387 57.487 18.688C56.8283 18.2373 56.3343 17.7347 56.005 17.18H55.589V19H52.963V0.799999H55.641V7.924H56.057C56.265 7.57733 56.5423 7.248 56.889 6.936C57.2356 6.60667 57.695 6.338 58.267 6.13C58.839 5.922 59.541 5.818 60.373 5.818C61.4476 5.818 62.4356 6.078 63.337 6.598C64.2383 7.118 64.9576 7.872 65.495 8.86C66.0323 9.848 66.301 11.0267 66.301 12.396V12.786C66.301 14.1727 66.0236 15.36 65.469 16.348C64.9316 17.3187 64.2123 18.064 63.311 18.584C62.427 19.104 61.4476 19.364 60.373 19.364ZM59.593 17.024C60.7543 17.024 61.7076 16.6513 62.453 15.906C63.2156 15.1607 63.597 14.0947 63.597 12.708V12.474C63.597 11.1047 63.2243 10.0473 62.479 9.302C61.7336 8.55667 60.7716 8.184 59.593 8.184C58.449 8.184 57.4956 8.55667 56.733 9.302C55.9876 10.0473 55.615 11.1047 55.615 12.474V12.708C55.615 14.0947 55.9876 15.1607 56.733 15.906C57.4956 16.6513 58.449 17.024 59.593 17.024ZM67.7992 19V6.182H70.4772V19H67.7992ZM69.1512 4.44C68.6312 4.44 68.1892 4.27533 67.8252 3.946C67.4785 3.59933 67.3052 3.15733 67.3052 2.62C67.3052 2.08267 67.4785 1.64933 67.8252 1.32C68.1892 0.973332 68.6312 0.799999 69.1512 0.799999C69.6885 0.799999 70.1305 0.973332 70.4772 1.32C70.8239 1.64933 70.9972 2.08267 70.9972 2.62C70.9972 3.15733 70.8239 3.59933 70.4772 3.946C70.1305 4.27533 69.6885 4.44 69.1512 4.44ZM78.5855 19.364C77.3549 19.364 76.2369 19.104 75.2315 18.584C74.2435 18.064 73.4549 17.31 72.8655 16.322C72.2935 15.334 72.0075 14.1467 72.0075 12.76V12.422C72.0075 11.0353 72.2935 9.85667 72.8655 8.886C73.4549 7.898 74.2435 7.144 75.2315 6.624C76.2369 6.08667 77.3549 5.818 78.5855 5.818C79.8162 5.818 80.8649 6.04333 81.7315 6.494C82.5982 6.94467 83.2915 7.54267 83.8115 8.288C84.3489 9.03333 84.6955 9.85667 84.8515 10.758L82.2515 11.304C82.1649 10.732 81.9829 10.212 81.7055 9.744C81.4282 9.276 81.0382 8.90333 80.5355 8.626C80.0329 8.34867 79.4002 8.21 78.6375 8.21C77.8922 8.21 77.2162 8.38333 76.6095 8.73C76.0202 9.05933 75.5522 9.54467 75.2055 10.186C74.8589 10.81 74.6855 11.5727 74.6855 12.474V12.708C74.6855 13.6093 74.8589 14.3807 75.2055 15.022C75.5522 15.6633 76.0202 16.1487 76.6095 16.478C77.2162 16.8073 77.8922 16.972 78.6375 16.972C79.7642 16.972 80.6222 16.686 81.2115 16.114C81.8009 15.5247 82.1735 14.7793 82.3295 13.878L84.9295 14.476C84.7215 15.36 84.3489 16.1747 83.8115 16.92C83.2915 17.6653 82.5982 18.2633 81.7315 18.714C80.8649 19.1473 79.8162 19.364 78.5855 19.364Z" fill="white"/>
<path d="M96.382 19L91.832 6.286H94.016L97.838 17.466H98.202L102.024 6.286H104.208L99.658 19H96.382ZM110.696 19.364C109.414 19.364 108.278 19.0953 107.29 18.558C106.32 18.0207 105.557 17.2667 105.002 16.296C104.465 15.308 104.196 14.1467 104.196 12.812V12.474C104.196 11.1567 104.465 10.004 105.002 9.016C105.557 8.028 106.32 7.26533 107.29 6.728C108.278 6.19067 109.414 5.922 110.696 5.922C111.979 5.922 113.106 6.19067 114.076 6.728C115.064 7.26533 115.827 8.028 116.364 9.016C116.919 10.004 117.196 11.1567 117.196 12.474V12.812C117.196 14.1467 116.919 15.308 116.364 16.296C115.827 17.2667 115.064 18.0207 114.076 18.558C113.106 19.0953 111.979 19.364 110.696 19.364ZM110.696 17.518C112.048 17.518 113.123 17.0933 113.92 16.244C114.735 15.3773 115.142 14.216 115.142 12.76V12.526C115.142 11.07 114.735 9.91733 113.92 9.068C113.123 8.20133 112.048 7.768 110.696 7.768C109.362 7.768 108.287 8.20133 107.472 9.068C106.658 9.91733 106.25 11.07 106.25 12.526V12.76C106.25 14.216 106.658 15.3773 107.472 16.244C108.287 17.0933 109.362 17.518 110.696 17.518ZM123.219 19C122.491 19 121.928 18.8007 121.529 18.402C121.148 18.0033 120.957 17.4573 120.957 16.764V8.08H117.135V6.286H120.957V1.762H123.011V6.286H127.171V8.08H123.011V16.452C123.011 16.972 123.263 17.232 123.765 17.232H126.599V19H123.219ZM128.678 19V6.286H130.732V19H128.678ZM129.718 4.31C129.268 4.31 128.886 4.16267 128.574 3.868C128.28 3.57333 128.132 3.20067 128.132 2.75C128.132 2.282 128.28 1.90067 128.574 1.606C128.886 1.31133 129.268 1.164 129.718 1.164C130.169 1.164 130.542 1.31133 130.836 1.606C131.131 1.90067 131.278 2.282 131.278 2.75C131.278 3.20067 131.131 3.57333 130.836 3.868C130.542 4.16267 130.169 4.31 129.718 4.31ZM133.232 19V6.286H135.234V8.444H135.598C135.875 7.83733 136.343 7.29133 137.002 6.806C137.678 6.30333 138.666 6.052 139.966 6.052C140.919 6.052 141.768 6.25133 142.514 6.65C143.276 7.04867 143.883 7.638 144.334 8.418C144.784 9.198 145.01 10.16 145.01 11.304V19H142.956V11.46C142.956 10.1947 142.635 9.276 141.994 8.704C141.37 8.132 140.52 7.846 139.446 7.846C138.215 7.846 137.21 8.24467 136.43 9.042C135.667 9.83933 135.286 11.0267 135.286 12.604V19H133.232ZM146.733 12.708V12.344C146.733 11.0093 147.001 9.86533 147.539 8.912C148.076 7.95867 148.804 7.222 149.723 6.702C150.641 6.182 151.647 5.922 152.739 5.922C154.073 5.922 155.096 6.182 155.807 6.702C156.535 7.20467 157.072 7.768 157.419 8.392H157.783V6.286H159.733V21.964C159.733 22.6573 159.542 23.2033 159.161 23.602C158.779 24.0007 158.225 24.2 157.497 24.2H148.865V22.38H156.951C157.471 22.38 157.731 22.12 157.731 21.6V16.764H157.367C157.159 17.1453 156.864 17.518 156.483 17.882C156.101 18.246 155.607 18.5493 155.001 18.792C154.394 19.0173 153.64 19.13 152.739 19.13C151.647 19.13 150.641 18.87 149.723 18.35C148.804 17.83 148.076 17.0933 147.539 16.14C147.001 15.1693 146.733 14.0253 146.733 12.708ZM153.285 17.31C154.602 17.31 155.668 16.894 156.483 16.062C157.315 15.23 157.731 14.086 157.731 12.63V12.422C157.731 10.9487 157.315 9.80467 156.483 8.99C155.668 8.158 154.602 7.742 153.285 7.742C151.985 7.742 150.91 8.158 150.061 8.99C149.229 9.80467 148.813 10.9487 148.813 12.422V12.63C148.813 14.086 149.229 15.23 150.061 16.062C150.91 16.894 151.985 17.31 153.285 17.31Z" fill="#61F0FE"/>
</svg>
